<svg id="cd" xmlns="http://www.w3.org/2000/svg" width="32" height="32" viewBox="0 0 32 32" fill="none"> <path d="M16 22.7368C17.8785 22.7368 19.471 22.0837 20.7773 20.7773C22.0837 19.471 22.7368 17.8785 22.7368 16C22.7368 14.1215 22.0837 12.529 20.7773 11.2227C19.471 9.91635 17.8785 9.26318 16 9.26318C14.1215 9.26318 12.529 9.91635 11.2227 11.2227C9.91635 12.529 9.26318 14.1215 9.26318 16C9.26318 17.8785 9.91635 19.471 11.2227 20.7773C12.529 22.0837 14.1215 22.7368 16 22.7368ZM16 17.6842C15.5228 17.6842 15.1228 17.5228 14.8 17.2C14.4772 16.8772 14.3158 16.4772 14.3158 16C14.3158 15.5228 14.4772 15.1228 14.8 14.8C15.1228 14.4772 15.5228 14.3158 16 14.3158C16.4772 14.3158 16.8772 14.4772 17.2 14.8C17.5228 15.1228 17.6842 15.5228 17.6842 16C17.6842 16.4772 17.5228 16.8772 17.2 17.2C16.8772 17.5228 16.4772 17.6842 16 17.6842ZM16.0028 32C13.7899 32 11.7098 31.5801 9.76264 30.7402C7.81543 29.9003 6.12164 28.7606 4.68128 27.3208C3.24088 25.8811 2.10057 24.188 1.26034 22.2417C0.420114 20.2954 0 18.2158 0 16.0028C0 13.7899 0.419931 11.7098 1.25979 9.76264C2.09965 7.81543 3.23945 6.12165 4.67917 4.68128C6.11892 3.24088 7.81196 2.10057 9.7583 1.26034C11.7046 0.420115 13.7842 0 15.9972 0C18.2101 0 20.2902 0.419933 22.2374 1.25979C24.1846 2.09966 25.8784 3.23945 27.3187 4.67917C28.7591 6.11892 29.8994 7.81197 30.7397 9.7583C31.5799 11.7046 32 13.7842 32 15.9972C32 18.2101 31.5801 20.2902 30.7402 22.2374C29.9003 24.1846 28.7606 25.8784 27.3208 27.3187C25.8811 28.7591 24.188 29.8994 22.2417 30.7397C20.2954 31.5799 18.2158 32 16.0028 32ZM16 29.4737C19.7614 29.4737 22.9474 28.1685 25.5579 25.5579C28.1685 22.9474 29.4737 19.7614 29.4737 16C29.4737 12.2386 28.1685 9.05261 25.5579 6.44208C22.9474 3.83155 19.7614 2.52628 16 2.52628C12.2386 2.52628 9.05261 3.83155 6.44208 6.44208C3.83155 9.05261 2.52628 12.2386 2.52628 16C2.52628 19.7614 3.83155 22.9474 6.44208 25.5579C9.05261 28.1685 12.2386 29.4737 16 29.4737Z" fill="#242424"/> </svg>