<svg width="171" height="171" viewBox="0 0 171 171" fill="none" xmlns="http://www.w3.org/2000/svg">
<rect width="171" height="171" fill="#EDEDED"/>
<path d="M85.4999 84.2942C81.7169 84.2942 78.4852 82.9541 75.8048 80.2738C73.1245 77.5935 71.7844 74.3618 71.7844 70.5788C71.7844 66.7957 73.1245 63.564 75.8048 60.8837C78.4852 58.2034 81.7169 56.8633 85.4999 56.8633C89.2829 56.8633 92.5146 58.2034 95.195 60.8837C97.8753 63.564 99.2154 66.7957 99.2154 70.5788C99.2154 74.3618 97.8753 77.5935 95.195 80.2738C92.5146 82.9541 89.2829 84.2942 85.4999 84.2942ZM62.0627 114.137C60.4099 114.137 59.0044 113.558 57.8465 112.4C56.6884 111.242 56.1094 109.836 56.1094 108.184V105.425C56.1094 103.506 56.6306 101.729 57.6732 100.094C58.7156 98.4585 60.1085 97.2012 61.8518 96.322C65.7254 94.4229 69.6328 92.9986 73.5742 92.0491C77.5155 91.0995 81.4908 90.6248 85.4999 90.6248C89.509 90.6248 93.4843 91.0995 97.4256 92.0491C101.367 92.9986 105.274 94.4229 109.148 96.322C110.891 97.2012 112.284 98.4585 113.327 100.094C114.369 101.729 114.89 103.506 114.89 105.425V108.184C114.89 109.836 114.311 111.242 113.153 112.4C111.995 113.558 110.59 114.137 108.937 114.137H62.0627Z" fill="#D7D7D7"/>
</svg>
